<svg width="192" height="192" viewBox="0 0 192 192" fill="none" xmlns="http://www.w3.org/2000/svg">
<g clip-path="url(#clip0_2002_12)">
<path d="M134.4 16.1997H19.2C8.59614 16.1997 0 24.7958 0 35.3997V54.5997C0 65.2036 8.59614 73.7997 19.2 73.7997H134.4C145.004 73.7997 153.6 65.2036 153.6 54.5997V35.3997C153.6 24.7958 145.004 16.1997 134.4 16.1997Z" stroke="black" stroke-width="2" stroke-linecap="round" stroke-linejoin="round"/>
<path d="M134.4 112.2H86.4001C75.7962 112.2 67.2001 120.796 67.2001 131.4V150.6C67.2001 161.204 75.7962 169.8 86.4001 169.8H134.4C145.004 169.8 153.6 161.204 153.6 150.6V131.4C153.6 120.796 145.004 112.2 134.4 112.2Z" stroke="black" stroke-width="2" stroke-linecap="round" stroke-linejoin="round"/>
<path d="M192 189V-3" stroke="black" stroke-width="2" stroke-linecap="round" stroke-linejoin="round"/>
</g>
<defs>
<clipPath id="clip0_2002_12">
<rect width="192" height="192" fill="white"/>
</clipPath>
</defs>
</svg>
